<svg xmlns="http://www.w3.org/2000/svg" viewBox="0 0 182.37 106.36"><defs><style>.cls-1{font-weight:500;font-size:12.86px;font-family:"Noto Sans TC", "Lato", sans-serif;}.cls-1,.cls-3{fill:#fff;}.cls-2{letter-spacing:0.1em;}.cls-3{font-size:21.71px; font-weight:500;  font-family: 'Noto Serif TC', 'Lato', serif;}.cls-4{fill:none;stroke:#fff;stroke-miterlimit:10;}</style></defs><g id="圖層_2" data-name="圖層 2"><g id="index"><text class="cls-1" transform="translate(1.09 77.34)"><tspan class="cls-2">展望2022</tspan><tspan x="62.01" y="0">年</tspan></text><text class="cls-1" transform="translate(1.09 92.88)"><tspan class="cls-2">中國汽車及食品前</tspan><tspan x="113.21" y="0">景</tspan></text><text class="cls-3" transform="translate(2.55 22.64)">專</text><rect class="cls-4" x="0.5" y="0.5" width="25.81" height="27.78"/><text class="cls-3" transform="translate(2.55 50.55)">高</text><rect class="cls-4" x="0.5" y="28.41" width="25.81" height="27.78"/><text class="cls-3" transform="translate(28.48 22.64)">訪</text><rect class="cls-4" x="26.43" y="0.5" width="25.81" height="27.78"/><text class="cls-3" transform="translate(28.48 50.55)">級</text><rect class="cls-4" x="26.43" y="28.41" width="25.81" height="27.78"/><text class="cls-3" transform="translate(54.39 22.64)">大</text><rect class="cls-4" x="52.33" y="0.5" width="25.81" height="27.78"/><text class="cls-3" transform="translate(132.17 22.64)">中</text><rect class="cls-4" x="130.12" y="0.5" width="25.81" height="27.78"/><text class="cls-3" transform="translate(54.39 50.55)">管</text><rect class="cls-4" x="52.33" y="28.41" width="25.81" height="27.78"/><text class="cls-3" transform="translate(80.29 22.64)">昌</text><rect class="cls-4" x="78.24" y="0.5" width="25.81" height="27.78"/><text class="cls-3" transform="translate(106.23 22.64)">行</text><rect class="cls-4" x="104.18" y="0.5" width="25.81" height="27.78"/><text class="cls-3" transform="translate(158.11 22.64)">國</text><rect class="cls-4" x="156.05" y="0.5" width="25.81" height="27.78"/><text class="cls-3" transform="translate(80.29 50.55)">理</text><rect class="cls-4" x="78.24" y="28.41" width="25.81" height="27.78"/><text class="cls-3" transform="translate(106.22 50.55)">層</text><rect class="cls-4" x="104.17" y="28.41" width="25.81" height="27.78"/></g></g></svg>